<?xml version="1.0" standalone="no"?>
<!DOCTYPE svg PUBLIC "-//W3C//DTD SVG 20010904//EN"
 "http://www.w3.org/TR/2001/REC-SVG-20010904/DTD/svg10.dtd">
<svg version="1.0" xmlns="http://www.w3.org/2000/svg"
 width="600.000000pt" height="600.000000pt" viewBox="0 0 600.000000 600.000000"
 preserveAspectRatio="xMidYMid meet">
<metadata>
Created by potrace 1.14, written by Peter Selinger 2001-2017
</metadata>
<g transform="translate(0.000000,600.000000) scale(0.100000,-0.100000)"
fill="#000000" stroke="none">
<path d="M1225 5905 c-144 -26 -313 -77 -400 -119 -164 -80 -335 -215 -437
-345 -29 -36 -55 -68 -58 -71 -16 -13 -103 -163 -131 -225 -26 -57 -78 -233
-94 -320 -23 -118 -25 -269 -24 -1835 0 -1845 -4 -1713 60 -1960 36 -140 95
-265 185 -390 91 -127 159 -197 284 -291 149 -112 271 -171 466 -222 l159 -42
1740 0 c957 0 1762 4 1788 8 138 22 326 79 422 127 228 113 417 291 555 520
67 111 102 206 143 390 l36 155 0 1705 c0 1868 4 1732 -60 1980 -88 340 -351
653 -686 817 -60 29 -148 59 -250 86 l-158 42 -1735 1 c-1380 2 -1749 -1
-1805 -11z"/>
</g>
</svg>
